<svg version="1.1" xmlns="http://www.w3.org/2000/svg" xmlns:xlink="http://www.w3.org/1999/xlink" width="34.9693" height="30.4313" viewBox="0,0,34.9693,30.4313"><g transform="translate(-222.51535,-164.78435)"><g data-paper-data="{&quot;isPaintingLayer&quot;:true}" fill-rule="nonzero" stroke-linejoin="miter" stroke-miterlimit="10" stroke-dasharray="" stroke-dashoffset="0" style="mix-blend-mode: normal"><g><path d="M222.51535,195.21565v-30.4313h34.9693v30.4313z" fill="#ffffff" stroke="none" stroke-width="0" stroke-linecap="butt"/><g stroke="#000000" stroke-width="0.5"><path d="M246.79166,177.85113c0,0.79808 -8.3686,10.80236 -3.97325,11.64792c5.42843,1.04429 9.60202,-10.98652 12.31705,-10.65953c4.28305,0.51583 -3.96791,13.61508 -14.02911,14.88348c-1.74061,0.21944 -6.78577,-3.53648 -5.31469,-6.12186c1.01658,-1.78662 15.71389,-17.78807 -2.83333,-9.41666c-4.5444,2.05114 -4.71256,-1.62894 -4.34283,-4.52061c0.332,-2.59658 5.63525,-3.89606 8.50949,-3.89606c6.07513,0 9.66666,2.69856 9.66666,8.08334z" fill="#ffffff" stroke-linecap="butt"/><path d="M225.625,178.54085v-4.08511l2.83334,-1.02128l3.66666,1.02128v4.08511l-3.33334,0.89362z" fill="#ffffff" stroke-linecap="butt"/><path d="M223.125,179.12623v-2.9329l2.32479,-0.73322l3.00854,0.73322v2.9329l-2.73505,0.64157z" fill="#ffffff" stroke-linecap="butt"/><path d="M251.54166,190.60113v-24.33333h5.33334v24.33333z" fill="#ffffff" stroke-linecap="butt"/><path d="M224.085,177.64114v-1l2.1,-0.8" fill="none" stroke-linecap="round"/><path d="M224.885,177.84114l0.2,-0.8l2.6,-0.9" fill="none" stroke-linecap="round"/></g></g></g></g></svg>